<svg xmlns="http://www.w3.org/2000/svg" width="785" height="685" viewBox="0 0 785 685" version="1.1"><path d="" stroke="none" fill="#0c0606" fill-rule="evenodd"/><path d="M 162.555 68.588 C 161.700 69.443, 160.947 70.673, 160.882 71.321 C 160.816 71.970, 160.850 72.937, 160.955 73.470 C 161.061 74.004, 161.266 82.554, 161.412 92.470 L 161.677 110.500 160.321 102 C 159.576 97.325, 158.575 89.317, 158.096 84.203 L 157.226 74.907 155.414 72.905 C 154.209 71.574, 152.613 71.003, 150.650 71.201 C 148.865 71.382, 146.928 72.535, 145.751 74.119 L 143.805 76.738 144.993 90.619 C 145.646 98.254, 146.349 106.975, 146.556 110 L 146.931 115.500 145.415 110.500 C 144.580 107.750, 143.274 102.711, 142.512 99.302 C 141.750 95.894, 140.632 92.181, 140.028 91.052 C 139.400 89.879, 137.926 89, 136.587 89 C 135.299 89, 133.631 89.740, 132.880 90.644 L 131.515 92.289 131.735 101.564 C 131.856 106.665, 132.464 113.012, 133.085 115.669 C 133.707 118.326, 134.330 130.175, 134.470 142 C 134.633 155.808, 135.175 164.931, 135.983 167.500 C 136.870 170.315, 137.046 174.760, 136.579 182.500 L 135.914 193.500 132.889 198.426 C 131.133 201.286, 129.623 205.387, 129.289 208.205 L 128.715 213.058 124.607 216.279 C 122.348 218.051, 118.140 221.975, 115.256 225 C 111.793 228.632, 110.014 231.349, 110.015 233 C 110.016 234.375, 110.675 240.225, 111.479 246 C 112.284 251.775, 113.451 259.875, 114.073 264 L 115.204 271.500 113.971 288.500 L 112.739 305.500 113.897 312.869 C 114.534 316.922, 116.266 322.712, 117.747 325.736 C 119.227 328.759, 121.802 332.249, 123.469 333.492 C 125.136 334.734, 128.075 336.431, 130 337.263 C 131.925 338.095, 138.225 340.677, 144 343 C 149.775 345.323, 155.850 347.801, 157.500 348.506 C 159.150 349.211, 164.325 350.940, 169 352.349 C 173.675 353.758, 182.225 356.095, 188 357.542 C 193.775 358.989, 202.550 361.032, 207.500 362.083 C 212.450 363.133, 220.228 364.287, 224.784 364.647 C 229.340 365.006, 233.241 365.582, 233.454 365.925 C 233.666 366.269, 232.525 372.389, 230.918 379.525 C 229.311 386.661, 227.279 394.975, 226.403 398 C 225.527 401.025, 224.014 405.300, 223.042 407.500 C 222.070 409.700, 219.983 414.875, 218.404 419 L 215.533 426.500 215.453 439 C 215.409 445.875, 215.024 453.300, 214.598 455.500 C 214.173 457.700, 213.231 460.850, 212.505 462.500 C 211.780 464.150, 209.099 469.957, 206.548 475.405 L 201.910 485.310 202.981 486.381 L 204.051 487.451 209.276 485.624 C 212.149 484.618, 215.850 483.210, 217.500 482.495 C 219.150 481.779, 223.650 480.067, 227.500 478.690 C 231.350 477.313, 236.750 475.422, 239.500 474.487 C 242.250 473.553, 245.400 472.431, 246.500 471.995 C 247.600 471.559, 250.075 470.639, 252 469.951 C 253.925 469.263, 256.850 468.156, 258.500 467.491 C 260.150 466.825, 262.850 465.719, 264.500 465.033 C 266.150 464.346, 270.031 462.970, 273.125 461.974 C 276.219 460.978, 281.169 459.180, 284.125 457.978 C 287.081 456.777, 290.400 455.444, 291.500 455.017 C 292.600 454.589, 295.525 453.457, 298 452.500 C 300.475 451.543, 303.400 450.411, 304.500 449.984 C 305.600 449.558, 310.775 447.738, 316 445.940 C 321.225 444.143, 327.075 441.995, 329 441.168 C 330.925 440.341, 336.775 438.122, 342 436.236 C 347.225 434.351, 353.188 432.309, 355.250 431.698 C 357.313 431.087, 359 430.230, 359 429.793 C 359 429.357, 359.660 429, 360.466 429 C 361.272 429, 363.410 428.363, 365.216 427.583 C 367.022 426.804, 370.075 425.517, 372 424.723 C 373.925 423.929, 377.649 422.705, 380.276 422.003 C 382.902 421.300, 385.291 420.337, 385.585 419.863 C 385.878 419.388, 386.998 419, 388.073 419 C 389.148 419, 390.809 418.572, 391.764 418.048 C 392.719 417.525, 395.075 416.463, 397 415.689 C 398.925 414.915, 401.850 413.725, 403.500 413.046 C 405.150 412.366, 408.525 411.148, 411 410.338 C 413.475 409.528, 418.650 407.727, 422.500 406.336 C 426.350 404.945, 430.918 403.175, 432.651 402.403 C 434.384 401.631, 436.213 401, 436.714 401 C 437.215 401, 439.958 399.875, 442.808 398.500 C 445.658 397.125, 448.690 396, 449.546 396 C 450.402 396, 451.799 397.687, 452.651 399.750 C 453.502 401.813, 454.942 404.335, 455.850 405.356 C 456.757 406.377, 459.170 408.065, 461.210 409.106 C 463.251 410.148, 465.951 410.993, 467.210 410.985 C 468.470 410.977, 471.300 410.321, 473.500 409.529 C 475.700 408.736, 478.014 408.068, 478.642 408.044 C 479.269 408.020, 480.079 409.238, 480.440 410.750 C 480.802 412.262, 483.128 418.900, 485.610 425.500 C 488.091 432.100, 491.254 440.650, 492.637 444.500 C 494.020 448.350, 495.847 453.300, 496.696 455.500 C 497.545 457.700, 498.582 460.400, 499 461.500 C 499.418 462.600, 500.543 465.525, 501.500 468 C 502.457 470.475, 503.582 473.400, 504.001 474.500 C 504.420 475.600, 505.906 479.650, 507.302 483.500 C 508.698 487.350, 510.119 491.472, 510.459 492.661 C 510.800 493.849, 512.073 495.470, 513.289 496.264 C 514.505 497.057, 520.675 498.957, 527 500.484 C 533.325 502.012, 541.650 504.146, 545.500 505.226 C 549.350 506.306, 554.075 507.532, 556 507.951 C 557.925 508.370, 561.477 509.262, 563.893 509.934 L 568.287 511.154 569.128 509.827 C 569.591 509.097, 570.023 505.575, 570.090 502 C 570.156 498.425, 570.062 491.675, 569.881 487 C 569.700 482.325, 569.567 476.250, 569.586 473.500 C 569.605 470.750, 570.178 466.250, 570.859 463.500 C 571.540 460.750, 572.506 456.700, 573.005 454.500 C 573.504 452.300, 573.932 446.353, 573.956 441.285 C 573.983 435.646, 573.406 430.213, 572.470 427.285 C 571.628 424.653, 569.132 418.900, 566.923 414.500 C 564.714 410.100, 560.565 403.946, 557.703 400.826 C 554.842 397.705, 550.250 393.748, 547.500 392.033 C 544.750 390.318, 540.662 388.450, 538.416 387.881 L 534.332 386.846 532.616 380.673 C 531.673 377.278, 530.442 372.769, 529.881 370.653 C 529.320 368.537, 529.005 366.700, 529.181 366.572 C 529.356 366.444, 534.900 365.806, 541.500 365.154 C 548.100 364.502, 559.968 363.317, 567.873 362.521 C 575.778 361.724, 585.453 360.334, 589.373 359.431 C 593.293 358.528, 600.775 356.661, 606 355.282 C 611.225 353.903, 617.075 352.450, 619 352.052 C 620.925 351.655, 625.875 350.304, 630 349.050 C 634.125 347.797, 639.437 346.035, 641.804 345.135 C 644.171 344.236, 646.871 342.768, 647.804 341.873 C 648.737 340.978, 650.263 339.313, 651.196 338.174 C 652.129 337.035, 653.610 333.718, 654.487 330.802 C 655.492 327.462, 656.425 318.451, 657.008 306.452 L 657.935 287.404 661.967 267.163 C 664.185 256.031, 666 245.887, 666 244.620 C 666 243.097, 663.883 240.300, 659.750 236.362 C 656.313 233.087, 651.841 229.158, 649.813 227.633 L 646.126 224.859 645.423 219.179 C 645.036 216.056, 643.910 211.038, 642.921 208.029 L 641.123 202.557 642.237 201.214 C 642.850 200.476, 643.259 197.538, 643.147 194.686 L 642.942 189.500 640.818 187.716 L 638.694 185.931 638.872 180.464 C 638.971 177.456, 639.567 173.759, 640.198 172.248 C 640.965 170.412, 641.295 161.866, 641.194 146.500 C 641.110 133.716, 641.479 122.157, 642.025 120.476 C 642.564 118.813, 643.117 113.596, 643.253 108.882 L 643.500 100.311 642.128 98.656 C 641.373 97.745, 639.755 97, 638.533 97 C 637.310 97, 635.507 97.887, 634.526 98.971 C 633.545 100.056, 632.341 102.868, 631.851 105.221 C 631.362 107.575, 630.720 110.850, 630.426 112.500 C 630.132 114.150, 629.430 116.967, 628.865 118.759 C 628.301 120.552, 627.425 121.763, 626.919 121.450 C 626.414 121.138, 626 118.829, 626 116.319 C 626 113.810, 625.291 106.974, 624.424 101.128 C 623.487 94.803, 622.209 89.791, 621.269 88.750 C 620.401 87.788, 618.426 87, 616.880 87 C 615.126 87, 613.682 87.726, 613.035 88.934 C 612.466 89.998, 611.943 94.611, 611.873 99.184 L 611.746 107.500 610.923 101 C 610.470 97.425, 609.581 91.716, 608.948 88.313 C 608.302 84.841, 607.003 81.408, 605.987 80.488 C 604.957 79.556, 602.975 78.990, 601.387 79.175 C 599.473 79.398, 597.994 80.537, 596.675 82.804 L 594.753 86.108 595.895 97.304 C 596.524 103.462, 597.282 110.412, 597.580 112.750 C 597.878 115.088, 597.720 117, 597.227 117 C 596.735 117, 594.483 113.063, 592.223 108.250 C 589.963 103.438, 587.395 96.958, 586.515 93.851 C 585.636 90.744, 583.832 87.032, 582.506 85.601 C 581.180 84.171, 579.499 83, 578.770 83 C 578.041 83, 576.504 83.659, 575.355 84.464 C 574.205 85.269, 572.992 87.291, 572.659 88.957 C 572.290 90.800, 573.036 95.803, 574.565 101.743 C 575.946 107.109, 577.782 113.525, 578.644 116 C 579.506 118.475, 580.615 121.400, 581.107 122.500 C 581.600 123.600, 582.672 126.750, 583.490 129.500 C 584.309 132.250, 584.976 136.750, 584.974 139.500 C 584.971 142.250, 584.639 144.019, 584.235 143.431 C 583.831 142.843, 581.324 141.322, 578.665 140.051 C 576.006 138.779, 572.150 137.695, 570.096 137.641 C 567.898 137.584, 564.334 138.585, 561.431 140.075 C 558.580 141.539, 555.939 143.766, 555.171 145.355 L 553.841 148.104 554.953 149.443 C 555.564 150.180, 558.187 151.087, 560.782 151.460 C 563.377 151.832, 567.300 152.996, 569.500 154.045 C 571.700 155.095, 574.850 157.622, 576.500 159.661 C 578.150 161.701, 582.238 166.391, 585.585 170.084 C 588.932 173.777, 592.871 179.333, 594.337 182.431 C 595.804 185.529, 597.427 189.947, 597.945 192.249 C 598.552 194.951, 598.534 196.856, 597.896 197.625 C 597.318 198.322, 597.189 201.036, 597.586 204.159 C 597.960 207.096, 598.714 210.066, 599.262 210.758 C 599.810 211.450, 600.299 215.725, 600.350 220.258 C 600.400 224.791, 599.910 233.675, 599.260 240 C 598.610 246.325, 597.554 258.250, 596.913 266.500 C 596.271 274.750, 595.466 283.927, 595.123 286.893 C 594.727 290.318, 593.891 292.668, 592.832 293.336 L 591.164 294.386 582.832 291.548 C 578.249 289.986, 572.925 288.310, 571 287.823 C 569.075 287.336, 563.691 286.556, 559.036 286.089 L 550.572 285.241 549.036 282.870 C 548.191 281.567, 546.510 279.490, 545.301 278.255 L 543.102 276.011 540.486 277.005 C 539.047 277.552, 537.461 278, 536.961 278 C 536.461 278, 535.315 276.538, 534.415 274.750 C 533.516 272.962, 531.163 269.813, 529.187 267.750 C 527.211 265.688, 525.053 264, 524.391 264 C 523.729 264, 521.634 261.837, 519.735 259.194 L 516.282 254.388 500.218 254.169 L 484.153 253.949 476.327 256.063 C 471.352 257.406, 466.678 258.022, 463.500 257.754 C 460.750 257.522, 456.250 256.267, 453.500 254.966 C 450.750 253.665, 448.275 252.539, 448 252.464 C 447.725 252.389, 446.600 251.977, 445.500 251.549 C 444.400 251.121, 440.973 249.647, 437.885 248.272 L 432.270 245.773 429.882 240.637 L 427.494 235.500 430.622 227.691 C 432.343 223.395, 434.701 218.996, 435.863 217.913 C 437.025 216.830, 438.227 214.720, 438.533 213.222 C 438.840 211.725, 439.617 208.700, 440.260 206.500 C 441.003 203.960, 441.508 192.287, 441.645 174.511 L 441.861 146.522 439.037 140.511 C 437.484 137.205, 433.926 131.965, 431.131 128.868 L 426.050 123.235 417.275 118.958 C 412.449 116.606, 407.375 113.652, 406 112.394 C 404.625 111.136, 401.339 108.957, 398.697 107.553 C 396.055 106.149, 392.658 105, 391.147 105 C 389.636 105, 387.972 105.407, 387.450 105.905 C 386.927 106.403, 382.900 107.030, 378.500 107.299 C 374.100 107.568, 368.592 108.044, 366.260 108.358 C 363.927 108.672, 359.506 110.327, 356.435 112.036 C 353.363 113.745, 349.753 116.097, 348.413 117.263 C 347.072 118.429, 344.648 121.733, 343.026 124.607 C 341.405 127.481, 339.254 130.433, 338.248 131.166 C 337.242 131.900, 335.480 133.850, 334.333 135.500 C 333.187 137.150, 331.705 140.750, 331.041 143.500 C 330.377 146.250, 329.591 150.014, 329.294 151.863 C 328.997 153.713, 329.237 156.863, 329.826 158.863 C 330.416 160.864, 331.124 166.111, 331.400 170.525 L 331.903 178.549 328.881 180.525 L 325.858 182.500 326.210 189.500 C 326.457 194.436, 327.334 198.122, 329.182 202 C 330.624 205.025, 332.328 209.525, 332.969 212 C 333.609 214.475, 334.643 217.961, 335.266 219.746 C 335.889 221.531, 337.205 223.248, 338.190 223.560 C 339.176 223.873, 340.376 223.886, 340.857 223.589 C 341.338 223.291, 343.142 225.317, 344.866 228.091 C 346.589 230.864, 348 233.562, 348 234.086 C 348 234.611, 346.911 236.764, 345.581 238.872 C 344.251 240.979, 341.438 244.008, 339.331 245.602 C 337.224 247.196, 334.529 249.040, 333.343 249.701 L 331.185 250.901 285.964 250.879 L 240.744 250.856 237.601 253.903 C 235.872 255.578, 233.246 259.323, 231.766 262.224 C 230.286 265.126, 228.842 268.667, 228.558 270.093 C 228.273 271.520, 226.943 273.784, 225.602 275.125 C 224.261 276.467, 221.106 278.591, 218.592 279.847 C 215.484 281.399, 211.699 282.254, 206.761 282.518 C 202.767 282.731, 195.159 283.123, 189.854 283.387 L 180.208 283.868 179.611 280.684 C 179.283 278.933, 178.541 265.800, 177.962 251.500 C 177.384 237.200, 176.458 223.436, 175.905 220.913 C 175.329 218.288, 175.162 211.232, 175.513 204.413 C 175.851 197.861, 176.579 190.424, 177.130 187.888 C 177.762 184.985, 179.367 181.967, 181.461 179.747 C 183.292 177.806, 187.199 174.428, 190.145 172.240 C 193.090 170.052, 197.266 166.584, 199.425 164.533 C 201.584 162.482, 205.061 159.724, 207.151 158.405 C 209.242 157.085, 212.875 155.559, 215.226 155.014 C 217.577 154.469, 221.182 153.773, 223.238 153.468 C 225.552 153.125, 227.382 152.154, 228.043 150.919 C 228.630 149.822, 228.831 148.043, 228.489 146.965 C 228.147 145.888, 225.985 143.930, 223.684 142.615 C 221.383 141.300, 217.770 139.920, 215.655 139.549 C 213.120 139.104, 209.883 139.460, 206.155 140.594 C 203.045 141.540, 200.072 142.693, 199.550 143.157 C 199.027 143.621, 197.554 144, 196.275 144 C 194.666 144, 193.619 143.153, 192.876 141.250 C 192.247 139.642, 192.039 135.547, 192.376 131.390 C 192.692 127.480, 193.901 122.080, 195.063 119.390 C 196.225 116.701, 198.440 110.675, 199.986 106 C 201.531 101.325, 203.273 94.667, 203.856 91.205 C 204.606 86.752, 204.603 84.224, 203.848 82.565 C 203.260 81.276, 201.788 79.769, 200.576 79.216 C 199.073 78.532, 197.756 78.553, 196.436 79.284 C 195.371 79.873, 193.945 81.062, 193.268 81.927 C 192.590 82.792, 191.301 85.975, 190.403 89 C 189.506 92.025, 187.640 97.425, 186.257 101 C 184.874 104.575, 183.047 109.170, 182.196 111.210 C 181.346 113.251, 180.013 115.165, 179.235 115.463 C 178.456 115.762, 177.482 115.798, 177.069 115.543 C 176.657 115.288, 176.035 106.624, 175.687 96.290 C 175.241 82.996, 174.581 76.111, 173.434 72.750 C 172.542 70.138, 171.517 67.950, 171.156 67.888 C 170.795 67.827, 169.062 67.609, 167.305 67.405 C 165.324 67.174, 163.519 67.624, 162.555 68.588 M 442 404.001 C 441.175 404.534, 438.250 405.684, 435.500 406.557 C 432.750 407.429, 429.600 408.507, 428.500 408.952 C 427.400 409.397, 424.475 410.543, 422 411.500 C 419.525 412.457, 416.600 413.594, 415.500 414.028 C 414.400 414.462, 408.775 416.485, 403 418.523 C 397.225 420.561, 391.150 422.800, 389.500 423.497 C 387.850 424.195, 384.925 425.336, 383 426.033 C 381.075 426.730, 378.150 427.877, 376.500 428.583 C 374.850 429.288, 371.475 430.529, 369 431.341 C 366.525 432.153, 361.350 433.988, 357.500 435.418 C 353.650 436.849, 349.600 438.411, 348.500 438.890 C 347.400 439.369, 344.700 440.471, 342.500 441.339 C 340.300 442.207, 334.675 444.245, 330 445.867 C 325.325 447.489, 314.525 451.493, 306 454.765 C 297.475 458.038, 288.700 461.291, 286.500 461.995 C 284.300 462.699, 280.700 464.064, 278.500 465.030 C 276.300 465.995, 269.100 468.674, 262.500 470.983 C 255.900 473.291, 249.600 475.536, 248.500 475.970 C 247.400 476.405, 244.475 477.551, 242 478.516 C 239.525 479.482, 236.150 480.846, 234.500 481.549 C 232.850 482.251, 226.775 484.445, 221 486.425 C 215.225 488.405, 209.600 490.416, 208.500 490.894 C 207.400 491.372, 203.125 493.007, 199 494.527 C 194.875 496.047, 190.988 497.688, 190.363 498.174 C 189.568 498.791, 189.501 500.284, 190.140 503.127 C 190.643 505.364, 190.766 508.839, 190.415 510.848 C 190.063 512.856, 189.076 515.625, 188.221 517 C 187.365 518.375, 185.728 520.330, 184.583 521.345 C 183.437 522.360, 181.262 523.834, 179.750 524.621 C 178.238 525.408, 177.007 526.827, 177.015 527.776 C 177.023 528.724, 177.646 531.300, 178.398 533.500 L 179.767 537.500 183.383 539.258 L 187 541.016 187 544.308 C 187 546.119, 186.512 548.088, 185.915 548.685 C 185.319 549.281, 184.981 550.806, 185.165 552.073 C 185.384 553.577, 186.889 555.093, 189.500 556.441 L 193.500 558.505 193.815 561.240 C 193.989 562.745, 193.476 564.910, 192.676 566.052 C 191.876 567.195, 191.441 568.972, 191.711 570.002 C 191.980 571.032, 193.504 572.329, 195.097 572.884 C 196.691 573.440, 198.532 575.073, 199.188 576.514 L 200.382 579.135 198.603 582.439 L 196.823 585.744 198.008 587.622 C 198.659 588.655, 200.611 590.175, 202.346 591 L 205.500 592.500 205.828 595.372 C 206.009 596.951, 205.671 598.729, 205.078 599.322 C 204.485 599.915, 204 601.581, 204 603.024 L 204 605.648 207.750 607.616 L 211.500 609.584 211.810 613.292 C 211.990 615.433, 211.673 617, 211.060 617 C 210.477 617, 210 617.922, 210 619.050 C 210 620.177, 210.697 622.447, 211.549 624.094 L 213.097 627.088 218.982 626.423 L 224.866 625.757 229.389 627.946 C 231.877 629.151, 235.169 631.611, 236.706 633.414 C 238.243 635.216, 239.950 637.437, 240.500 638.348 L 241.500 640.005 258.078 633.613 C 267.196 630.097, 279.346 625.566, 285.078 623.544 C 290.810 621.521, 302.475 617.234, 311 614.015 C 319.525 610.797, 330.550 606.730, 335.500 604.978 C 340.450 603.226, 345.400 601.435, 346.500 600.997 C 347.600 600.560, 350.075 599.639, 352 598.951 C 353.925 598.263, 356.850 597.121, 358.500 596.413 C 360.150 595.705, 369.600 592.146, 379.500 588.504 C 389.400 584.862, 399.975 580.973, 403 579.862 C 406.025 578.750, 409.978 577.202, 411.784 576.420 C 413.590 575.639, 415.734 575, 416.547 575 C 417.361 575, 418.809 574.596, 419.764 574.102 C 420.719 573.608, 424.875 571.988, 429 570.503 C 433.125 569.018, 437.850 567.217, 439.500 566.501 C 441.150 565.785, 444.525 564.501, 447 563.649 C 449.475 562.796, 454.425 561.001, 458 559.658 C 461.575 558.316, 466.675 556.268, 469.333 555.109 C 471.991 553.949, 474.566 553, 475.056 553 C 475.545 553, 478.320 551.928, 481.223 550.618 C 484.125 549.307, 490.013 547.002, 494.307 545.495 L 502.113 542.756 501.452 537.461 C 501.044 534.193, 501.259 530.698, 502.015 528.333 C 502.772 525.964, 505.321 522.534, 508.692 519.352 L 514.144 514.205 512.679 509.852 L 511.214 505.500 508.857 505.162 C 507.561 504.977, 505.528 503.924, 504.340 502.822 L 502.180 500.820 504.090 498.910 C 505.221 497.779, 506 495.613, 506 493.598 L 506 490.196 502.994 489.148 C 501.310 488.561, 499.576 487.015, 499.050 485.632 C 498.430 484, 498.497 482.144, 499.249 480.152 L 500.385 477.141 499.252 474.653 C 498.629 473.285, 496.896 471.566, 495.401 470.833 C 493.907 470.100, 492.226 468.761, 491.665 467.858 L 490.646 466.215 492.230 462.944 C 493.200 460.941, 493.527 458.864, 493.073 457.586 C 492.665 456.439, 490.807 454.720, 488.944 453.768 C 487.081 452.815, 485.238 451.171, 484.847 450.115 C 484.428 448.982, 484.710 447.439, 485.537 446.348 C 486.306 445.331, 486.951 443.734, 486.968 442.797 C 486.986 441.860, 486.465 439.920, 485.811 438.484 C 485.094 436.911, 483.543 435.659, 481.907 435.331 C 480.064 434.963, 479.047 434.026, 478.739 432.414 C 478.489 431.107, 478.936 429.109, 479.731 427.974 L 481.177 425.909 479.089 421.465 C 477.940 419.021, 477 416.642, 477 416.178 C 477 415.714, 473.512 415.357, 469.250 415.386 L 461.500 415.438 457.184 412.665 C 454.811 411.140, 451.954 408.341, 450.836 406.446 L 448.802 403 446.151 403.015 C 444.693 403.024, 442.825 403.467, 442 404.001 M 450.887 436.227 L 442.274 439.243 443.710 442.121 C 444.500 443.705, 445.451 444.998, 445.823 444.996 C 446.195 444.994, 449.875 443.674, 454 442.063 L 461.500 439.134 461.164 436.817 C 460.978 435.543, 460.528 434.210, 460.164 433.856 C 459.799 433.502, 455.624 434.569, 450.887 436.227 M 398 437.593 C 392.775 439.536, 386.700 441.827, 384.500 442.683 C 382.300 443.539, 379.600 444.627, 378.500 445.101 C 377.400 445.574, 372.675 447.368, 368 449.086 C 363.325 450.804, 358.375 452.579, 357 453.030 C 355.625 453.481, 352.250 454.723, 349.500 455.789 C 346.750 456.856, 339.325 459.620, 333 461.932 C 326.675 464.244, 315.200 468.527, 307.500 471.450 C 299.800 474.373, 290.575 477.774, 287 479.009 C 283.425 480.243, 280.050 481.586, 279.500 481.994 C 278.950 482.401, 275.800 483.669, 272.500 484.810 C 269.200 485.952, 263.350 488.021, 259.500 489.409 C 255.650 490.798, 248.450 493.467, 243.500 495.341 L 234.500 498.749 234.719 501.624 C 234.840 503.206, 235.387 505.400, 235.935 506.500 C 236.484 507.600, 238.035 511.650, 239.383 515.500 C 240.730 519.350, 243.855 528.125, 246.327 535 C 248.798 541.875, 252.616 552.450, 254.811 558.500 C 257.006 564.550, 261.085 575.427, 263.875 582.671 C 266.665 589.915, 269.915 598.690, 271.097 602.171 C 272.279 605.652, 273.532 608.818, 273.880 609.206 C 274.228 609.595, 280.585 607.742, 288.006 605.090 C 295.428 602.437, 303.300 599.486, 305.500 598.531 C 307.700 597.577, 315.575 594.657, 323 592.044 C 330.425 589.431, 347.750 583.143, 361.500 578.072 C 375.250 573, 390.775 567.270, 396 565.337 C 401.225 563.403, 406.400 561.453, 407.500 561.003 C 408.600 560.552, 417.825 557.160, 428 553.464 C 438.175 549.769, 447.714 546.128, 449.198 545.374 L 451.897 544.002 450.866 540.751 C 450.299 538.963, 449.458 536.600, 448.997 535.500 C 448.536 534.400, 446.067 527.911, 443.510 521.080 C 440.953 514.249, 438.172 506.599, 437.331 504.080 C 436.490 501.561, 435.231 498.150, 434.535 496.500 C 433.838 494.850, 432.130 490.350, 430.739 486.500 C 429.348 482.650, 426.532 475, 424.480 469.500 C 422.429 464, 420.164 458.150, 419.446 456.500 C 418.729 454.850, 416.642 449.225, 414.808 444 L 411.475 434.500 409.488 434.280 C 408.394 434.158, 403.225 435.649, 398 437.593 M 456.750 451.750 C 452.065 453.327, 449 454.907, 449 455.745 C 449 456.508, 449.446 457.965, 449.991 458.983 L 450.982 460.835 459.117 457.959 C 463.591 456.377, 467.493 454.841, 467.788 454.545 C 468.083 454.250, 467.811 452.882, 467.184 451.504 C 466.556 450.127, 465.696 449.032, 465.271 449.071 C 464.847 449.110, 461.012 450.316, 456.750 451.750 M 469 465.017 C 468.175 465.449, 464.882 466.625, 461.681 467.632 C 458.481 468.638, 455.437 469.974, 454.916 470.601 C 454.294 471.350, 454.575 472.443, 455.735 473.789 L 457.500 475.836 465.250 473.354 L 473 470.872 473 468.559 C 473 467.286, 472.438 465.792, 471.750 465.238 C 471.063 464.684, 469.825 464.585, 469 465.017 M 327 476.918 C 324.525 477.869, 320.882 479.419, 318.904 480.364 C 316.925 481.309, 312.755 484.357, 309.636 487.137 L 303.964 492.192 299.982 500.419 L 296 508.646 296.024 518.573 L 296.047 528.500 298.343 534.080 C 299.605 537.148, 301.952 541.423, 303.558 543.580 C 305.164 545.736, 307.383 548.347, 308.489 549.383 C 309.595 550.419, 312.801 552.756, 315.613 554.576 C 318.426 556.397, 323.474 558.812, 326.832 559.943 C 330.190 561.075, 335.179 562, 337.920 562 C 340.660 562, 345.413 561.346, 348.482 560.547 C 351.551 559.747, 357.590 557.327, 361.902 555.169 C 366.215 553.011, 372.388 550.306, 375.622 549.159 C 378.855 548.012, 385.100 545.758, 389.500 544.149 L 397.500 541.224 397.288 538.435 C 397.171 536.901, 396.470 535.041, 395.729 534.301 L 394.384 532.955 387.054 535.978 C 383.023 537.640, 379.137 539, 378.419 539 L 377.112 539 379.245 534.250 C 380.750 530.897, 381.503 526.808, 381.803 520.350 L 382.230 511.201 380.072 504.716 C 378.885 501.149, 376.401 496.103, 374.552 493.503 C 372.703 490.902, 369.029 486.989, 366.388 484.806 C 363.746 482.622, 360.382 480.215, 358.912 479.455 C 357.443 478.695, 354.274 477.388, 351.870 476.551 C 349.255 475.640, 344.287 475.061, 339.500 475.110 C 334.503 475.160, 329.811 475.839, 327 476.918 M 474 480.732 C 472.625 480.985, 471.050 481.521, 470.500 481.924 C 469.950 482.326, 467.395 483.433, 464.821 484.383 L 460.143 486.111 461.169 489.055 C 461.734 490.675, 462.737 492, 463.398 492 C 464.059 492, 465.028 491.641, 465.550 491.202 C 466.072 490.763, 468.975 489.571, 472 488.554 C 475.025 487.536, 478.013 486.306, 478.641 485.820 L 479.782 484.936 478.641 482.476 C 478.013 481.123, 477.275 480.073, 477 480.144 C 476.725 480.215, 475.375 480.479, 474 480.732 M 326.315 487.007 C 325.114 487.491, 323.651 488.783, 323.065 489.878 C 322.479 490.973, 322 493.403, 322 495.279 C 322 497.402, 322.744 499.363, 323.969 500.472 C 325.128 501.521, 327.640 502.299, 330.069 502.363 L 334.200 502.471 336.100 500.125 C 337.145 498.834, 338 496.526, 338 494.995 C 338 493.304, 336.862 490.993, 335.099 489.106 C 333.503 487.398, 331.366 486.029, 330.349 486.063 C 329.332 486.098, 327.517 486.523, 326.315 487.007 M 352.035 490.734 C 351.229 491.051, 349.781 492.253, 348.818 493.405 C 347.855 494.557, 347.052 496.878, 347.033 498.563 C 347.011 500.642, 347.901 502.489, 349.805 504.313 C 351.625 506.057, 353.706 507, 355.732 507 C 357.915 507, 359.479 506.207, 360.927 504.365 C 362.197 502.752, 363 500.260, 363 497.938 L 363 494.145 360.365 492.073 C 358.916 490.933, 356.778 490.036, 355.615 490.079 C 354.452 490.122, 352.841 490.417, 352.035 490.734 M 479.450 496.831 C 478.928 497.288, 475.688 498.484, 472.250 499.489 C 468.813 500.494, 466.006 501.583, 466.014 501.908 C 466.021 502.234, 466.299 503.512, 466.630 504.750 L 467.233 507 470.058 507 C 471.611 507, 473.160 506.550, 473.500 506 C 473.840 505.450, 474.763 505, 475.552 505 C 476.341 505, 478.789 504.219, 480.993 503.264 C 483.197 502.309, 485 500.996, 485 500.346 C 485 499.696, 484.727 498.452, 484.393 497.582 C 484.059 496.712, 483.024 496, 482.093 496 C 481.162 496, 479.972 496.374, 479.450 496.831 M 517 504.974 C 517 505.962, 517.752 509.185, 518.672 512.135 C 519.591 515.086, 520.971 518.243, 521.737 519.151 C 522.504 520.059, 524.721 521.100, 526.665 521.465 L 530.200 522.128 529.576 524.314 C 529.233 525.516, 526.675 535.275, 523.892 546 C 521.108 556.725, 516.375 575.400, 513.373 587.500 C 510.372 599.600, 507.269 611.865, 506.478 614.756 C 505.687 617.647, 504.294 622.597, 503.382 625.756 C 502.470 628.915, 501.563 631.791, 501.367 632.147 C 501.170 632.503, 496.844 631.670, 491.754 630.295 C 486.665 628.920, 480.137 627.167, 477.250 626.398 C 474.363 625.629, 469.637 624.367, 466.750 623.593 C 463.863 622.820, 458.575 621.452, 455 620.553 C 451.425 619.655, 446.700 618.433, 444.500 617.837 C 442.300 617.242, 438.475 616.184, 436 615.487 C 433.525 614.790, 428.800 613.480, 425.500 612.577 C 422.200 611.674, 418.150 610.534, 416.500 610.045 C 414.850 609.556, 408.325 607.942, 402 606.458 C 395.675 604.974, 386.920 602.626, 382.545 601.239 C 378.170 599.852, 372.320 598.713, 369.545 598.708 C 366.729 598.703, 363.175 599.425, 361.500 600.343 C 359.850 601.248, 357.739 601.990, 356.809 601.994 C 355.879 601.997, 354.840 602.450, 354.500 603 C 354.160 603.550, 353.064 604, 352.063 604 C 351.063 604, 349.656 604.709, 348.937 605.576 L 347.629 607.152 348.837 607.899 C 349.502 608.310, 355.548 610.101, 362.273 611.880 C 368.998 613.658, 376.750 615.768, 379.500 616.569 C 382.250 617.369, 385.575 618.229, 386.888 618.481 C 388.201 618.732, 391.801 619.676, 394.888 620.578 C 397.975 621.479, 405.675 623.514, 412 625.100 C 418.325 626.686, 426.650 628.888, 430.500 629.994 C 434.350 631.099, 445.150 634.063, 454.500 636.581 C 463.850 639.099, 473.975 641.755, 477 642.485 C 480.025 643.214, 487 645, 492.500 646.455 C 498 647.910, 507.225 650.463, 513 652.130 C 518.775 653.796, 525.113 655.621, 527.084 656.185 C 529.055 656.749, 531.527 657.045, 532.576 656.843 C 533.626 656.641, 535.110 655.131, 535.875 653.488 C 536.640 651.844, 537.993 649.654, 538.883 648.620 C 539.772 647.587, 542.450 645.899, 544.833 644.870 C 547.447 643.742, 551.513 643, 555.083 643 L 561 643 561 640.700 C 561 639.435, 561.487 637.913, 562.082 637.318 L 563.164 636.236 561.842 634.118 C 561.114 632.953, 560.177 632, 559.759 632 C 559.342 632, 559 630.945, 559 629.655 C 559 628.365, 559.823 626.565, 560.829 625.655 C 561.835 624.745, 563.169 624, 563.794 624 C 564.418 624, 565.395 623.130, 565.965 622.066 C 566.534 621.002, 567 619.257, 567 618.188 C 567 617.119, 566.302 615.666, 565.449 614.958 C 564.589 614.244, 564.033 612.526, 564.199 611.099 C 564.386 609.505, 565.700 607.762, 567.658 606.514 C 569.395 605.406, 571.016 603.509, 571.260 602.299 C 571.504 601.088, 570.877 598.838, 569.866 597.299 C 568.790 595.661, 568.284 593.690, 568.646 592.547 C 568.986 591.472, 569.847 590.010, 570.561 589.297 C 571.274 588.583, 572.556 588, 573.410 588 C 574.263 588, 575.245 586.872, 575.591 585.493 C 575.984 583.930, 575.614 582.060, 574.610 580.528 C 573.725 579.176, 573 577.328, 573 576.420 C 573 575.512, 574.864 573.065, 577.142 570.983 L 581.284 567.196 579.070 563.613 C 577.678 561.362, 577.095 559.277, 577.499 558.004 C 577.852 556.890, 579.428 555.313, 581 554.500 C 582.572 553.687, 584.076 552.229, 584.342 551.261 C 584.608 550.292, 585.106 547.833, 585.449 545.797 L 586.073 542.093 580.743 539.572 C 577.812 538.185, 574.308 535.576, 572.957 533.775 L 570.500 530.500 570.556 523.750 C 570.587 520.038, 570.587 516.996, 570.556 516.990 C 570.525 516.985, 562.400 514.914, 552.500 512.389 C 542.600 509.864, 533.033 507.569, 531.241 507.288 C 529.448 507.008, 527.734 506.379, 527.432 505.890 C 527.129 505.400, 525.634 505, 524.108 505 C 522.582 505, 521.020 504.687, 520.638 504.304 C 520.255 503.922, 519.280 503.512, 518.471 503.393 C 517.642 503.271, 517 503.961, 517 504.974 M 310 507.662 C 309.175 507.981, 307.723 509.199, 306.772 510.370 C 305.822 511.542, 305.034 513.672, 305.022 515.104 C 305.010 516.536, 306.104 518.899, 307.452 520.354 C 309.176 522.214, 310.913 523, 313.299 523 C 315.232 523, 317.664 522.158, 318.947 521.046 C 320.520 519.682, 321.200 517.984, 321.200 515.424 C 321.200 513.186, 320.477 511.033, 319.347 509.902 C 318.327 508.883, 316.145 507.832, 314.497 507.566 C 312.848 507.301, 310.825 507.344, 310 507.662 M 488 512.109 C 487.175 512.578, 483.983 513.658, 480.906 514.507 C 477.830 515.356, 474.510 516.638, 473.530 517.355 L 471.747 518.658 472.889 520.792 C 473.634 522.185, 474.632 522.728, 475.765 522.356 C 476.719 522.042, 479.075 521.137, 481 520.344 C 482.925 519.552, 485.281 518.475, 486.236 517.952 C 487.191 517.428, 488.654 517, 489.486 517 C 490.319 517, 490.968 516.438, 490.930 515.750 C 490.891 515.063, 490.554 513.770, 490.180 512.877 C 489.717 511.772, 489.022 511.527, 488 512.109 M 336.750 515.107 C 335.707 515.699, 335 517.283, 335 519.031 L 335 521.962 337.513 522.593 C 338.979 522.961, 340.666 522.692, 341.561 521.949 C 342.406 521.248, 342.962 519.787, 342.798 518.702 C 342.634 517.617, 341.600 516.141, 340.500 515.422 C 339.102 514.509, 337.973 514.414, 336.750 515.107 M 359.171 516.592 L 356.898 518.185 357.199 522.742 L 357.500 527.299 360 529.124 L 362.500 530.949 366.325 530.063 C 368.429 529.575, 370.777 528.349, 371.543 527.338 C 372.310 526.327, 372.951 524.242, 372.968 522.705 C 372.987 521.038, 372.009 518.918, 370.545 517.455 C 368.924 515.833, 366.963 515, 364.768 515 C 362.940 515, 360.422 515.717, 359.171 516.592 M 208.500 526.548 C 206.300 527.315, 203.742 528.225, 202.817 528.571 L 201.133 529.198 202.269 531.849 C 202.894 533.307, 203.511 534.659, 203.640 534.854 C 203.770 535.049, 205.323 534.487, 207.091 533.604 C 208.860 532.722, 210.801 531.986, 211.404 531.968 C 212.007 531.951, 213.266 531.354, 214.202 530.643 C 215.295 529.813, 215.701 528.571, 215.335 527.175 C 215.023 525.979, 214.257 525.035, 213.633 525.077 C 213.010 525.119, 210.700 525.781, 208.500 526.548 M 531.150 559.269 C 526.557 577.546, 522.218 594.975, 521.507 598 C 520.796 601.025, 518.994 608, 517.502 613.500 C 516.011 619, 514.153 626.153, 513.373 629.395 C 512.594 632.637, 512.078 635.360, 512.228 635.446 C 512.378 635.533, 515.015 636.368, 518.088 637.302 C 521.161 638.236, 524.244 639, 524.938 639 C 525.632 639, 527.730 637.470, 529.599 635.601 C 531.469 633.731, 535.209 631.407, 537.910 630.435 L 542.822 628.669 543.298 626.085 C 543.561 624.663, 544.526 620.800, 545.444 617.500 C 546.362 614.200, 548.715 605.425, 550.673 598 C 552.631 590.575, 554.578 582.925, 555.001 581 C 555.424 579.075, 557.441 571.200, 559.484 563.500 C 561.527 555.800, 563.393 549.184, 563.629 548.798 C 563.866 548.411, 562.520 546.079, 560.639 543.614 C 558.758 541.150, 556.646 536.898, 555.946 534.166 L 554.673 529.198 549.722 527.599 C 546.998 526.720, 543.585 526.009, 542.135 526.019 L 539.500 526.039 531.150 559.269 M 317.823 531.797 C 316.545 532.670, 315.169 533.860, 314.765 534.442 C 314.361 535.024, 314.024 536.983, 314.015 538.795 C 314.005 540.975, 314.831 542.922, 316.455 544.545 C 317.910 546.001, 320.047 546.991, 321.705 546.978 C 323.242 546.966, 325.460 546.178, 326.633 545.228 C 327.806 544.277, 329.269 542.517, 329.883 541.316 C 330.497 540.114, 330.998 538.539, 330.995 537.816 C 330.992 537.092, 329.934 535.180, 328.644 533.568 C 327.088 531.624, 325.261 530.563, 323.222 530.422 C 321.530 530.305, 319.101 530.924, 317.823 531.797 M 341.655 536.829 C 340.670 537.917, 340 540.352, 340 542.843 L 340 547.029 343.250 549.054 C 345.437 550.415, 347.460 550.897, 349.434 550.527 C 351.048 550.224, 353.186 549.237, 354.184 548.333 C 355.308 547.316, 356 545.296, 356 543.034 C 356 540.736, 355.242 538.564, 353.961 537.189 L 351.922 535 347.616 535 C 344.714 535, 342.770 535.596, 341.655 536.829 M 213.310 541.848 C 210.455 542.757, 207.846 543.784, 207.511 544.132 C 207.177 544.480, 207.198 545.942, 207.560 547.382 C 207.976 549.039, 208.904 550, 210.088 550 C 211.117 550, 213.881 549.257, 216.230 548.350 C 218.578 547.442, 220.854 546.390, 221.287 546.012 C 221.720 545.635, 221.619 544.127, 221.062 542.663 C 220.505 541.198, 219.701 540.044, 219.275 540.098 C 218.849 540.152, 216.164 540.939, 213.310 541.848 M 220.500 556.974 C 219.400 557.436, 217.068 558.347, 215.317 559 L 212.135 560.187 212.722 561.843 C 213.046 562.755, 213.718 564.029, 214.217 564.677 L 215.123 565.853 218.311 564.828 C 220.065 564.264, 222.902 563.180, 224.615 562.419 L 227.729 561.035 227.248 558.517 C 226.907 556.734, 226.145 556.020, 224.633 556.068 C 223.460 556.105, 221.600 556.513, 220.500 556.974 M 485.440 562.792 C 484.866 563.181, 482.881 565.638, 481.029 568.250 C 479.177 570.862, 477.400 572.984, 477.080 572.964 C 476.761 572.945, 473.800 572.277, 470.500 571.480 C 467.200 570.683, 464.163 570.024, 463.750 570.016 C 463.337 570.007, 463 570.850, 463 571.888 C 463 572.926, 464.575 576.065, 466.500 578.864 C 468.425 581.662, 470 584.550, 470 585.280 C 470 586.011, 468.650 588.737, 467 591.339 C 465.350 593.941, 464 596.504, 464 597.035 C 464 597.566, 464.845 598, 465.878 598 C 466.911 598, 469.371 597.325, 471.346 596.500 C 473.320 595.675, 475.963 595.027, 477.218 595.061 C 478.671 595.099, 480.772 596.713, 483 599.500 C 484.925 601.908, 487.063 603.906, 487.750 603.939 C 488.438 603.973, 489.044 603.212, 489.099 602.250 C 489.153 601.288, 489.295 599.600, 489.414 598.500 C 489.533 597.400, 489.714 595.046, 489.815 593.269 L 490 590.039 496.500 587 C 500.075 585.329, 503 583.339, 503 582.578 C 503 581.818, 501.583 580.702, 499.851 580.098 C 498.119 579.494, 495.713 579, 494.506 579 C 493.298 579, 491.625 578.212, 490.788 577.250 C 489.951 576.288, 488.964 572.806, 488.596 569.513 C 488.228 566.221, 487.602 563.202, 487.205 562.805 C 486.808 562.408, 486.014 562.402, 485.440 562.792 M 448.500 568.224 C 446.850 568.780, 444.810 569.575, 443.967 569.990 C 443.124 570.406, 440.874 571.080, 438.967 571.488 C 437.060 571.897, 435.050 572.564, 434.500 572.971 C 433.950 573.378, 432.600 573.963, 431.500 574.271 C 430.400 574.579, 427.025 575.787, 424 576.954 C 420.975 578.122, 415.012 580.244, 410.750 581.671 C 406.488 583.098, 403 584.600, 403 585.010 C 403 585.420, 403.563 586.185, 404.250 586.710 C 404.938 587.235, 409.550 588.646, 414.500 589.845 C 419.450 591.044, 428.321 593.318, 434.214 594.899 L 444.927 597.774 446.374 596.637 C 447.169 596.012, 449.041 590.775, 450.532 585 C 452.024 579.225, 453.587 573.060, 454.005 571.300 C 454.424 569.540, 454.519 567.853, 454.217 567.550 C 453.914 567.248, 453.179 567.048, 452.583 567.106 C 451.988 567.165, 450.150 567.668, 448.500 568.224 M 227.250 572.442 C 224.912 572.960, 223 573.748, 223 574.192 C 223 574.636, 222.311 575, 221.469 575 C 220.626 575, 219.692 575.640, 219.392 576.422 C 219.092 577.204, 219.323 578.734, 219.905 579.823 L 220.964 581.801 227.184 579.866 C 230.605 578.801, 233.617 577.716, 233.878 577.455 C 234.140 577.194, 233.711 575.747, 232.927 574.240 L 231.500 571.500 227.250 572.442 M 231.250 589.285 L 225 591.386 225 593.493 C 225 594.652, 225.491 596.091, 226.091 596.691 L 227.182 597.782 233.619 595.641 L 240.056 593.500 239.457 591 C 239.128 589.625, 238.553 588.204, 238.179 587.842 C 237.806 587.481, 234.688 588.130, 231.250 589.285 M 240.603 603.834 C 240.283 604.351, 238.487 605.061, 236.612 605.413 C 234.736 605.765, 232.698 606.659, 232.083 607.400 C 231.468 608.140, 231.252 609.492, 231.601 610.403 C 232.033 611.529, 232.920 611.870, 234.368 611.467 C 235.541 611.141, 237.400 610.493, 238.500 610.028 C 239.600 609.562, 241.319 608.918, 242.320 608.595 C 243.500 608.215, 244.028 607.244, 243.820 605.833 C 243.644 604.636, 242.979 603.485, 242.342 603.276 C 241.705 603.066, 240.922 603.317, 240.603 603.834" stroke="none" fill="#040404" fill-rule="evenodd"/></svg>